<?xml version="1.0" encoding="UTF-8" standalone="no"?>
<!-- Created with Inkscape (http://www.inkscape.org/) -->

<svg
   version="1.1"
   id="svg1"
   width="514.73334"
   height="514.56"
   viewBox="0 0 514.73334 514.56"
   sodipodi:docname="outline n fiil.eps"
   xmlns:inkscape="http://www.inkscape.org/namespaces/inkscape"
   xmlns:sodipodi="http://sodipodi.sourceforge.net/DTD/sodipodi-0.dtd"
   xmlns="http://www.w3.org/2000/svg"
   xmlns:svg="http://www.w3.org/2000/svg">
  <defs
     id="defs1" />
  <sodipodi:namedview
     id="namedview1"
     pagecolor="#ffffff"
     bordercolor="#000000"
     borderopacity="0.25"
     inkscape:showpageshadow="2"
     inkscape:pageopacity="0.0"
     inkscape:pagecheckerboard="0"
     inkscape:deskcolor="#d1d1d1">
    <inkscape:page
       x="0"
       y="0"
       inkscape:label="1"
       id="page1"
       width="514.73334"
       height="514.56"
       margin="0"
       bleed="0" />
  </sodipodi:namedview>
  <g
     id="g1"
     inkscape:groupmode="layer"
     inkscape:label="1">
    <g
       id="group-R5">
      <path
         id="path2"
         d="M 500.633,3844.24 H 3401.34 c 245.46,0 444.15,-198.99 444.15,-444.46 V 432.949 C 3845.49,202.141 3658.34,15 3427.54,15 H 477.242 C 222.105,14.6914 15,221.789 15,476.621 c 0,169.879 0,169.879 0,0 V 3358.61 c 0,267.92 217.398,485.32 485.32,485.32 z"
         style="fill:none;stroke:#ffffff;stroke-width:30;stroke-linecap:butt;stroke-linejoin:miter;stroke-miterlimit:10;stroke-dasharray:none;stroke-opacity:1"
         transform="matrix(0.13333333,0,0,-0.13333333,0,514.56)" />
      <path
         id="path3"
         d="m 3349.51,2493.87 h -623.8 v -403.91 h -238.92 v 596.98 c 0,329.37 320.95,374.29 592.62,374.29 h 315.33 v -162.51 h -328.43 c -192.76,0 -339.04,-49.59 -347.15,-242.97 h 629.42 z m -2195.8,63.94 c 2.81,75.8 -10.91,150.97 -40.54,220.83 -34,72.05 -86.09,108.23 -155.955,108.23 H 686.484 v -629.11 h 288.821 c 63.005,-0.62 119.145,38.68 140.665,97.63 27.14,63.94 39.93,132.87 37.74,202.42 z m -25.57,472.23 c 82.97,-34.31 149.09,-99.5 184.96,-181.84 42.73,-89.21 63.94,-187.46 62.38,-286.33 2.49,-103.24 -21.52,-205.55 -69.56,-296.93 -39.3,-84.22 -115.71,-145.66 -206.79,-165.31 -38.05,-6.86 -76.73,-9.98 -115.403,-9.67 H 460.668 v 971.89 h 494.363 c 59.259,0 117.899,-10.92 173.419,-31.81 h -0.31"
         style="fill:#ffffff;fill-opacity:1;fill-rule:nonzero;stroke:none"
         transform="matrix(0.13333333,0,0,-0.13333333,0,514.56)" />
      <path
         id="path4"
         d="m 3191.07,1164.85 c 1.25,30.88 -9.98,60.82 -31.19,83.28 -21.21,23.71 -51.47,37.12 -83.28,36.18 h -353.39 v -226.44 h 358.69 c 29.01,-1.25 57.08,10.29 77.35,31.19 20.28,20.27 31.51,47.72 31.19,76.42 z m -13.73,393.31 c 0.32,32.13 -11.85,63.01 -34.31,86.09 -21.52,24.02 -52.71,37.12 -84.83,36.18 h -329.37 v -232.06 h 343.09 c 28.7,-0.93 56.46,10.3 76.11,31.19 19.33,21.84 29.31,50.22 28.38,79.23 z m 282.9,-402.98 c 1.25,-71.73 -29.32,-140.04 -83.28,-187.141 -54.58,-50.84 -126.63,-77.969 -201.18,-76.41 h -676.51 v 972.201 h 649.69 c 71.12,1.56 140.67,-20.27 198.06,-62.38 54.27,-38.05 89.83,-97.63 97,-163.44 0.31,-5.61 0.31,-11.23 0,-16.84 v -16.53 c 1.25,-48.66 -12.16,-96.69 -38.99,-137.55 -30.25,-41.8 -72.05,-73.92 -120.39,-92.33 49.9,-15.28 94.51,-44.91 128.19,-84.83 31.19,-37.74 47.72,-85.78 46.16,-134.75 z M 1326.51,892.559 H 949.73 c -253.265,0 -474.718,84.222 -484.386,355.571 v 617.26 h 221.453 v -608.84 c 0,-160 173.105,-204.61 305.976,-207.1 H 1326.51 V 892.559"
         style="fill:#ffffff;fill-opacity:1;fill-rule:nonzero;stroke:none"
         transform="matrix(0.13333333,0,0,-0.13333333,0,514.56)" />
      <path
         id="path5"
         d="m 2188.61,1063.48 2.81,218.34 -436.67,2.18 c -30.88,0.94 -61.44,-8.73 -85.77,-27.76 -46.16,-35.56 -54.9,-101.99 -19.34,-148.15 4.68,-6.24 10.29,-11.86 16.53,-17.16 22.46,-17.15 49.91,-26.51 77.98,-26.2 z m 220.52,-167.8 h -679.95 c -79.23,-1.559 -155.95,26.199 -215.53,78.289 -58.32,53.331 -93.57,107.291 -93.57,187.141 -0.31,82.34 30.57,161.88 86.71,222.08 54.58,55.83 124.76,70.17 206.79,70.17 h 482.83 l -3.43,102.62 c 0,20.59 -9.36,130.38 -179.35,130.38 h -515.89 l -1.87,174.97 h 528.37 c 58.01,3.75 116.03,-4.36 170.61,-24.32 90.14,-37.12 160,-111.04 192.44,-202.74 17.16,-60.82 24.96,-123.83 23.4,-187.14 l -1.56,-551.45"
         style="fill:#ffffff;fill-opacity:1;fill-rule:nonzero;stroke:none"
         transform="matrix(0.13333333,0,0,-0.13333333,0,514.56)" />
      <path
         id="path6"
         d="m 2102.21,2897.48 c 28.07,0.31 55.83,-9.05 77.98,-26.2 46.16,-38.68 52.09,-107.61 13.41,-153.77 -4.05,-4.99 -8.42,-9.36 -13.41,-13.41 -24.33,-19.03 -54.9,-29.01 -85.77,-28.39 l -436.67,2.5 v 66.43 0 14.04 c 0,20.59 0,138.8 169.36,138.8 z m -283.52,170.92 c -177.16,0 -376.78,-73.3 -379.58,-323.76 v 0 -235.17 c 0,-33.06 14.03,-159.07 22.45,-188.08 32.13,-92.63 102,-167.18 192.45,-205.23 54.58,-19.96 112.59,-28.07 170.61,-24.33 h 528.05 l -1.87,176.85 h -516.51 c -170.3,0 -179.35,111.04 -179.66,131.62 v 103.87 h 481.58 c 81.1,0 151.9,14.34 206.48,70.8 55.83,61.13 86.4,141.29 85.46,223.95 0,81.4 -34.93,135.99 -93.57,189.94 -59.26,52.72 -135.99,80.79 -215.21,79.23 l -300.68,0.31"
         style="fill:#ffffff;fill-opacity:1;fill-rule:nonzero;stroke:none"
         transform="matrix(0.13333333,0,0,-0.13333333,0,514.56)" />
    </g>
  </g>
</svg>
